<svg width="440" height="31" viewBox="0 0 440 31" fill="none" xmlns="http://www.w3.org/2000/svg">
<g filter="url(#filter0_d_1_1075)">
<path d="M0.5 1L0 0H440L439 1L437.5 5L436.5 7L438.5 9H437V10L436 10.5H435C435.167 10.8333 435.4 11.5 435 11.5H433.5H432.5L432 10.5L431.5 11L430 11.5V12L431 12.5L430.5 14L429.5 13.5H428.5V14L429.5 14.5L428 15L427 14.5H425.5L424.5 15L424 14.5L422 14L421 14.5L419.5 15L419 14.5L417.5 14L416.5 14.5L416 13.5L415 12.5H414.5V13L413.5 14C413.667 13.8333 414 13.6 414 14V14.5L413.5 15L411 14.5L410.5 14L410 13H409L407.5 14L407 13L406.5 12H405.5H404.5L404 13.5H403L402.5 12.5L402 12L401 12.5V13.5H399.5V13L398.5 12.5L397.5 13L395.5 12.5L395 13.5L394 14.5L393 14H392L390.5 13.5L389.5 14.5V15H387.5L386 16H385L384 15L383.5 14L382 15C381.667 15.1667 381 15.4 381 15C381 14.6 380.333 13.8333 380 13.5L379.5 14V15V16L378.5 16.5L378 15.5L377 16.5L377.5 17.5V19L376.5 19.5L375.5 21L374.5 20.5L374 20L373 19.5L372.5 20V20.5H371.5L371 21.5L370.5 21L369.5 20.5V19.5L368.5 20L368 19.5L367 20V20.5L366 21.5L365 21L365.5 20.5L364 20V21V21.5H362.5L361.5 21L360.5 20L360 21L360.5 22L359.5 22.5L358.5 22H357.5V22.5H356.5L355.5 23.5H354.5L354 22.5L353 23L352 23.5L351.5 23L351 22L350.5 22.5L349.5 23V22.5C349 22.6667 348 22.9 348 22.5C348 22.1 347.667 21 347.5 20.5L347 21.5V22.5L346.5 23.5V24L345.5 24.5L345 24H344H343L342.5 25L343 26H342L342.5 27L341.5 26.5L340.5 25L340 25.5V26.5L341 27L340.5 28H340L339 27L338.5 26.5V27.5L339 28.5C338.667 28.6667 338 28.9 338 28.5V27.5H337V28.5L336 28L335.5 27L335 28L334 27.5H333L332.5 26.5L331 27H329.5L329 26.5L328.5 26L328 26.5H327.5C327.667 26.1667 327.9 25.5 327.5 25.5H326V25L325.5 24H324.5L324 23V24L323 25L322.5 24L322 23.5L321 22.5L321.5 22V21L320.5 22L320 21.5V21L319 20.5L319.5 21.5H318.5L318 21L317.5 21.5L317 21L316.5 20.5V21.5H315.5V20.5L315 20V21L314 21.5L313.5 21L312.5 20.5V22H312L311.5 21.5L311 20.5L310 21L309 20L308 19.5V20.5L307 20L305.5 18.5L305 17.5L304 18.5H303.5L303 17.5L302.5 18.5L301.5 19V18V17L301 18L300.5 18.5L300 18V17.5H299V16.5L298 17L297 17.5L296.5 17V16L295.5 17V18L295 17L294.5 17.5L293.5 18.5L293 18L291 17.5L291.5 18L291 18.5L289.5 17.5L289 18V18.5L287.5 18L287 17L286.5 17.5L287 18.5L288.5 19L288 19.5V20V20.5H287V19.5L286 20L285 19L284.5 17.5L284 16.5H283L282.5 15.5L281.5 14.5L281 15V16L281.5 16.5V17.5L281 17L280 16L279.5 15L279 16V16.5L278.5 16L278 15L277 15.5L276.5 14.5H275.5L275 15.5L274.5 16L274 17H273V17.5L273.5 18H272.5L272 17.5L271.5 18L272 18.5L270.5 18V19H269.5V19.5L269 20L268 19L267.5 19.5L268 20H267L266.5 19V18L266 19V19.5H265V18L264.5 19L263.5 18.5V18L262.5 18.5V17L262 16.5L261.5 17.5L261 18L260 17L259.5 18H259L258.5 17.5L258 18V18.5H257.5L257 17.5L256.5 18V18.5L256 18L255 17.5V17L254.5 17.5V18H254L253.5 17H253V17.5V18H252V17H251.5L251 17.5L250.5 16.5L250 17V16L249.5 16.5V17V17.5L249 18L248.5 17.5V16.5H248H247.5L247 16L246.5 17L246 16.5L245.5 17L245 16.5L244 16V16.5L243.5 17L243 18H242.5V17H242L241.5 17.5L241 18L240.5 17.5L239.5 17V17.5L238.5 18L239 17.5L238 17L237.5 16H236.5L237 16.5V17L236 17.5L235.5 18V17L235 16.5L234 17V17.5L233.5 18L233 17H232V17.5L232.5 18.5H232L231.5 18L230.5 17.5V18L230 18.5L229.5 18L228.5 18.5L228 19L227.5 18L227 17L226.5 18L226 18.5H225.5L224.5 18H224L223.5 19L223 18.5L222.5 19V20H221.5L221 20.5L220 19.5V19L219 18.5L218 17.5V18.5L217.5 19L217 20L216 19L215 19.5L215.5 20.5L214.5 21L213.5 20.5V21.5L214.5 22V23L214 23.5L213.5 23L212.5 22.5V23.5L213 24H211.5L211 23.5L210.5 24.5L210 25L209 24.5H208L207.5 23L206.5 23.5V23V22.5L205.5 23V23.5L205 23V22.5L204.5 22V23H204L203.5 22L203 22.5V23.5L202.5 24V23.5L202 22.5L201.5 23H201V22H200L199.5 21L199 22V22.5H198.5L198 21.5H197.5V22H196.5V21.5L195.5 21V21.5H194.5H194V22L193 22.5V22L192.5 21.5L193 21L192.5 20.5H192V21H191.5L191 20.5L190.5 20V21L190 21.5L189 21L189.5 20.5H188.5V21.5L188 22V21.5L187.5 21L187 22L186.5 21H186V20L185.5 19.5L185 18.5L184 18V18.5L183 18V18.5L182.5 19V19.5L182 19L181.5 18.5L181 19L180.5 18.5H180L179.5 19L179 19.5L178.5 19V18.5H178V19H177.5L177 17.5V16.5H176.5L176 17.5L175.5 17L175 16.5V17L174 17.5V18H173.5L173 17.5V17L172.5 17.5L172 18L171.5 18.5L171 17.5L170.5 16.5V17.5V18.5L170 19V18.5L169.5 18L169 17H168.5L168 17.5H167.5L167 17L166.5 17.5L166 18V16.5L165.5 17V18H165L164.5 19L164 18.5L163.5 17.5V18.5V19H162.5V18L162 17.5L161.5 18H161L160.5 17.5V16.5H160V17L159.5 17.5L159 17V16.5L158.5 17V17.5L158 18V17.5L157.5 17V17.5L157 18V18.5L156.5 18V17L156 17.5L155 18V18.5H154.5L154 18V17H153.5L153 16H152.5L152 16.5V15.5L151.5 15L151 15.5L150.5 16V15L150 14.5V15.5L149.5 16V15L149 15.5V16.5L148 15.5V15L147 14.5V14H146.5V14.5L146 15L145.5 14.5L145 15.5V16H144.5V15.5L144 15L143.5 15.5L144 16L143.5 16.5L143 16L142.5 15H142L141.264 14L141 14.5L141.5 15L142.5 16L142 16.5V16L141 16.5L141.5 17L141.264 17.25L141 17L140.5 16.5H140L140.5 17V17.5L140 18V17.25H139.277L139 18L138.822 17.25L138.5 16.5V17V18L137.5 18.5V17.5L137.248 17.25H136.5L137 18V18.5L136.5 18L136 17.5V18.5L136.5 19L136 19.5L135.5 20V19L135 18.5H134.5L134 19L135 19.5L134.5 20H134L133.5 19.5V19V18.5L132 18L132.5 17.5L131.743 17.25L131 17L130.5 16.5L131 16H130L129.5 16.5H129V16L128.5 16.5V17C128.333 17.0833 127.946 17.25 127.728 17.25C127.51 17.25 127.485 17.0833 127.5 17L127 16.5L126.5 17C126.5 17.0833 126.456 17.25 126.279 17.25C126.102 17.25 126.019 17.0833 126 17V16.5L125.5 17.5V18.5H125V18L124.5 17.25V17.5V18.5L123.5 18V17.5V17L123 16.5L122.5 17L122 16.5V16L121 15H120L121 16V16.5H120.5L120 16L119.5 15.5V16.5L120.5 17.5H119.5L119 17V17.5L118.5 16.5V15.5L117.5 16V17C117.333 17 117 17.1 117 17.5C117 17.9 116.667 17 116.5 16.5H116V17.5V18L115.5 17.5H115V16.5L114.5 17L114 18L113.5 17.5V17L113 16.5L112.5 17V17.5L112 17L111.5 16.5H111L110.5 17L109.5 16L109 16.5L108.5 15.5V15H107.5V15.5L108 16L107 16.5V16H106L105.5 16.5L104.5 16H104L104.5 15.5L104 15L103 16H102.5V15.5V15H101.5L101 15.5H100C99.6 15.5 99.8333 15.1667 100 15H99L98.5 15.5H97.5L97 15V15.5V16.5H96H95.5V18.5L95 17.5H94.5V18H93.5H93L92.5 18.5L92 19.5H91.5V19H91L90.5 20H90V19.5L89.5 20.5V21H88.5L88 20.5H87V21.5H86V20.5L85.5 21.5V22V23C85.5 23.4 85.1667 22.5 85 22L84.5 21.5L85 21L84.5 20.5L83.5 21V21.5H82.5V22H81.5L80.5 21.5L80 22L81 22.5H81.5V23.5H81V24H80.5V23H80H79V22.5H78V23H77.5L77 22.5H76.5V23.5L76 23V22.5H75.5V23.5L75 24L74.5 23.5L74 23V23.5L73.5 24H73V23.5L72.5 23L72 24C71.8333 24.1667 71.4 24.5 71 24.5C70.6 24.5 70.8333 24.1667 71 24H70.5H70L69 24.5V23.5H68L68.5 24V24.5L68 24H67.5V23.5L66.5 23V23.5H66V22.5H65.5V23.5H65V23L64.5 22.5L64 23H63C62.8333 22.8333 62.4 22.5 62 22.5H62.5V21.5H61.5L61 22H60V21L59 21.5H58.5V22.5L57.5 23V22H56.5L56 22.5V21.5L55.5 21L55 20.5H54.5V19.5L54 19H53.5V20L51.5 18L49.5 17.5L49 16.5L48 16L46.5 16.5L45.5 16L45 15L43.5 16V15L42.5 14.5L41.5 15L40 14L39 13L37.5 12L37 11L36 10V11H35L33.5 10L33 10.5L32 10V9L31.5 8L30.5 8.5C30 8 29.1 6.9 29.5 6.5C29.9 6.1 29 6.66667 28.5 7H27C26.6 7 26.5 6.66667 26.5 6.5L26 7L25 7.5L24.5 6.5L23.5 7V8L22.5 8.5L21 7H20L19.5 6L17.5 5L16.5 5.5L15.5 5L15 4.5L13.5 3.5L12.5 4H11.5L11 3.5L10.5 2.5L10 2L9 3L8 2.5H7C6.6 2.5 6.5 2.16667 6.5 2L6 1.5H5L4 1L3.5 0.5L2.5 1L2 1.5L1.5 1H0.5Z" fill="#EFF3F5"/>
</g>
<defs>
<filter id="filter0_d_1_1075" x="0" y="0" width="440" height="30.7208" filterUnits="userSpaceOnUse" color-interpolation-filters="sRGB">
<feFlood flood-opacity="0" result="BackgroundImageFix"/>
<feColorMatrix in="SourceAlpha" type="matrix" values="0 0 0 0 0 0 0 0 0 0 0 0 0 0 0 0 0 0 127 0" result="hardAlpha"/>
<feOffset dy="2"/>
<feComposite in2="hardAlpha" operator="out"/>
<feColorMatrix type="matrix" values="0 0 0 0 0.882353 0 0 0 0 0.894118 0 0 0 0 0.901961 0 0 0 1 0"/>
<feBlend mode="normal" in2="BackgroundImageFix" result="effect1_dropShadow_1_1075"/>
<feBlend mode="normal" in="SourceGraphic" in2="effect1_dropShadow_1_1075" result="shape"/>
</filter>
</defs>
</svg>
